<svg width="10" height="10" class="hidden">
  <symbol xmlns="http://www.w3.org/2000/svg" viewBox="0 0 640 640"  fill="#333" id="quote-right-solid-full">
    <path d="M544 360C544 426.3 490.3 480 424 480L416 480C398.3 480 384 465.7 384 448C384 430.3 398.3 416 416 416L424 416C454.9 416 480 390.9 480 360L480 352L416 352C380.7 352 352 323.3 352 288L352 224C352 188.7 380.7 160 416 160L480 160C515.3 160 544 188.7 544 224L544 360zM288 360C288 426.3 234.3 480 168 480L160 480C142.3 480 128 465.7 128 448C128 430.3 142.3 416 160 416L168 416C198.9 416 224 390.9 224 360L224 352L160 352C124.7 352 96 323.3 96 288L96 224C96 188.7 124.7 160 160 160L224 160C259.3 160 288 188.7 288 224L288 360z"></path>
  </symbol>
  <symbol xmlns="http://www.w3.org/2000/svg" viewBox="0 0 640 640"  id="quote-left-solid-full">
    <path d="M96 280C96 213.7 149.7 160 216 160L224 160C241.7 160 256 174.3 256 192C256 209.7 241.7 224 224 224L216 224C185.1 224 160 249.1 160 280L160 288L224 288C259.3 288 288 316.7 288 352L288 416C288 451.3 259.3 480 224 480L160 480C124.7 480 96 451.3 96 416L96 280zM352 280C352 213.7 405.7 160 472 160L480 160C497.7 160 512 174.3 512 192C512 209.7 497.7 224 480 224L472 224C441.1 224 416 249.1 416 280L416 288L480 288C515.3 288 544 316.7 544 352L544 416C544 451.3 515.3 480 480 480L416 480C380.7 480 352 451.3 352 416L352 280z"></path>
  </symbol>
  <symbol xmlns="http://www.w3.org/2000/svg" viewBox="0 0 640 640" fill="#ac1e72" id="circle-check-solid-full">
    <path d="M320 576C178.6 576 64 461.4 64 320C64 178.6 178.6 64 320 64C461.4 64 576 178.6 576 320C576 461.4 461.4 576 320 576zM438 209.7C427.3 201.9 412.3 204.3 404.5 215L285.1 379.2L233 327.1C223.6 317.7 208.4 317.7 199.1 327.1C189.8 336.5 189.7 351.7 199.1 361L271.1 433C276.1 438 282.9 440.5 289.9 440C296.9 439.5 303.3 435.9 307.4 430.2L443.3 243.2C451.1 232.5 448.7 217.5 438 209.7z"></path>
  </symbol>
  <symbol xmlns="http://www.w3.org/2000/svg" fill="none" stroke="#333" stroke-width="2" stroke-linecap="round" stroke-linejoin="round" viewBox="0 0 24 24" id="calculator">
    <rect width="16" height="20" x="4" y="2" rx="2"></rect>
    <line x1="8" x2="16" y1="6" y2="6"></line>
    <line x1="16" x2="16" y1="14" y2="18"></line>
    <path d="M16 10h.01"></path>
    <path d="M12 10h.01"></path>
    <path d="M8 10h.01"></path>
    <path d="M12 14h.01"></path>
    <path d="M8 14h.01"></path>
    <path d="M12 18h.01"></path>
    <path d="M8 18h.01"></path>
  </symbol>
  <symbol xmlns="http://www.w3.org/2000/svg" fill="none" stroke="#333" stroke-width="2" stroke-linecap="round" stroke-linejoin="round" viewBox="0 0 24 24" id="laptop">
    <path d="M18 5a2 2 0 0 1 2 2v8.526a2 2 0 0 0 .212.897l1.068 2.127a1 1 0 0 1-.9 1.45H3.62a1 1 0 0 1-.9-1.45l1.068-2.127A2 2 0 0 0 4 15.526V7a2 2 0 0 1 2-2z"></path>
    <path d="M20.054 15.987H3.946"></path>
  </symbol>
  <symbol xmlns="http://www.w3.org/2000/svg" fill="none" stroke="#ac1e72" stroke-width="2" stroke-linecap="round" stroke-linejoin="round" viewBox="0 0 24 24" id="file-down">
    <path d="M15 2H6a2 2 0 0 0-2 2v16a2 2 0 0 0 2 2h12a2 2 0 0 0 2-2V7Z"></path>
    <path d="M14 2v4a2 2 0 0 0 2 2h4"></path>
    <path d="M12 18v-6"></path>
    <path d="m9 15 3 3 3-3"></path>
  </symbol>
  <symbol xmlns="http://www.w3.org/2000/svg" fill="none" stroke="#ac1e72" stroke-width="2" stroke-linecap="round" stroke-linejoin="round" viewBox="0 0 24 24" id="circle-check">
    <circle cx="12" cy="12" r="10"></circle>
    <path d="m9 12 2 2 4-4"></path>
  </symbol>

    <symbol xmlns="http://www.w3.org/2000/svg" viewBox="0 0 640 640" id="square-youtube-brands-solid-full">
    <path d="M378 320.2L282.8 266.1L282.8 374.3L378 320.2zM480 96L160 96C124.7 96 96 124.7 96 160L96 480C96 515.3 124.7 544 160 544L480 544C515.3 544 544 515.3 544 480L544 160C544 124.7 515.3 96 480 96zM494.4 232.1C502 260.7 502 320.3 502 320.3C502 320.3 502 379.9 494.4 408.4C490.2 424.2 477.9 436.1 462.2 440.3C433.9 448 320 448 320 448C320 448 206.1 448 177.8 440.4C162.1 436.2 149.8 424.3 145.6 408.5C138 379.9 138 320.3 138 320.3C138 320.3 138 260.6 145.6 232.1C149.8 216.3 162.1 203.9 177.8 199.7C206.1 192 320 192 320 192C320 192 433.9 192 462.2 199.7C477.9 203.9 490.2 216.3 494.4 232.1z"></path>
  </symbol>
  <symbol xmlns="http://www.w3.org/2000/svg" viewBox="0 0 640 640" id="square-instagram-brands-solid-full">
    <path d="M290.4 275.7C274 286 264.5 304.5 265.5 323.8C266.6 343.2 278.2 360.4 295.6 368.9C313.1 377.3 333.8 375.5 349.6 364.3C366 354 375.5 335.5 374.5 316.2C373.4 296.8 361.8 279.6 344.4 271.1C326.9 262.7 306.2 264.5 290.4 275.7zM432.7 207.3C427.5 202.1 421.2 198 414.3 195.3C396.2 188.2 356.7 188.5 331.2 188.8C327.1 188.8 323.3 188.9 320 188.9C316.7 188.9 312.8 188.9 308.6 188.8C283.1 188.5 243.8 188.1 225.7 195.3C218.8 198 212.6 202.1 207.3 207.3C202 212.5 198 218.8 195.3 225.7C188.2 243.8 188.6 283.4 188.8 308.9C188.8 313 188.9 316.8 188.9 320C188.9 323.2 188.9 327 188.8 331.1C188.6 356.6 188.2 396.2 195.3 414.3C198 421.2 202.1 427.4 207.3 432.7C212.5 438 218.8 442 225.7 444.7C243.8 451.8 283.3 451.5 308.8 451.2C312.9 451.2 316.7 451.1 320 451.1C323.3 451.1 327.2 451.1 331.4 451.2C356.9 451.5 396.2 451.9 414.3 444.7C421.2 442 427.4 437.9 432.7 432.7C438 427.5 442 421.2 444.7 414.3C451.9 396.3 451.5 356.9 451.2 331.3C451.2 327.1 451.1 323.2 451.1 319.9C451.1 316.6 451.1 312.8 451.2 308.5C451.5 283 451.9 243.6 444.7 225.5C442 218.6 437.9 212.4 432.7 207.1L432.7 207.3zM365.6 251.8C383.7 263.9 396.2 282.7 400.5 304C404.8 325.3 400.3 347.5 388.2 365.6C382.2 374.6 374.5 382.2 365.6 388.2C356.7 394.2 346.6 398.3 336 400.4C314.7 404.6 292.5 400.2 274.4 388.1C256.3 376 243.8 357.2 239.5 335.9C235.2 314.6 239.7 292.4 251.7 274.3C263.7 256.2 282.6 243.7 303.9 239.4C325.2 235.1 347.4 239.6 365.5 251.6L365.6 251.6zM394.8 250.5C391.7 248.4 389.2 245.4 387.7 241.9C386.2 238.4 385.9 234.6 386.6 230.8C387.3 227 389.2 223.7 391.8 221C394.4 218.3 397.9 216.5 401.6 215.8C405.3 215.1 409.2 215.4 412.7 216.9C416.2 218.4 419.2 220.8 421.3 223.9C423.4 227 424.5 230.7 424.5 234.5C424.5 237 424 239.5 423.1 241.8C422.2 244.1 420.7 246.2 419 248C417.3 249.8 415.1 251.2 412.8 252.2C410.5 253.2 408 253.7 405.5 253.7C401.7 253.7 398 252.6 394.9 250.5L394.8 250.5zM544 160C544 124.7 515.3 96 480 96L160 96C124.7 96 96 124.7 96 160L96 480C96 515.3 124.7 544 160 544L480 544C515.3 544 544 515.3 544 480L544 160zM453 453C434.3 471.7 411.6 477.6 386 478.9C359.6 480.4 280.4 480.4 254 478.9C228.4 477.6 205.7 471.7 187 453C168.3 434.3 162.4 411.6 161.2 386C159.7 359.6 159.7 280.4 161.2 254C162.5 228.4 168.3 205.7 187 187C205.7 168.3 228.5 162.4 254 161.2C280.4 159.7 359.6 159.7 386 161.2C411.6 162.5 434.3 168.3 453 187C471.7 205.7 477.6 228.4 478.8 254C480.3 280.3 480.3 359.4 478.8 385.9C477.5 411.5 471.7 434.2 453 452.9L453 453z"></path>
  </symbol>
  <symbol xmlns="http://www.w3.org/2000/svg" viewBox="0 0 640 640" id="linkedin-brands-solid-full">
    <path d="M512 96L127.9 96C110.3 96 96 110.5 96 128.3L96 511.7C96 529.5 110.3 544 127.9 544L512 544C529.6 544 544 529.5 544 511.7L544 128.3C544 110.5 529.6 96 512 96zM231.4 480L165 480L165 266.2L231.5 266.2L231.5 480L231.4 480zM198.2 160C219.5 160 236.7 177.2 236.7 198.5C236.7 219.8 219.5 237 198.2 237C176.9 237 159.7 219.8 159.7 198.5C159.7 177.2 176.9 160 198.2 160zM480.3 480L413.9 480L413.9 376C413.9 351.2 413.4 319.3 379.4 319.3C344.8 319.3 339.5 346.3 339.5 374.2L339.5 480L273.1 480L273.1 266.2L336.8 266.2L336.8 295.4L337.7 295.4C346.6 278.6 368.3 260.9 400.6 260.9C467.8 260.9 480.3 305.2 480.3 362.8L480.3 480z"></path>
  </symbol>
  <symbol xmlns="http://www.w3.org/2000/svg" viewBox="0 0 640 640" id="facebook-brands-solid-full">
    <path d="M576 320C576 178.6 461.4 64 320 64C178.6 64 64 178.6 64 320C64 440 146.7 540.8 258.2 568.5L258.2 398.2L205.4 398.2L205.4 320L258.2 320L258.2 286.3C258.2 199.2 297.6 158.8 383.2 158.8C399.4 158.8 427.4 162 438.9 165.2L438.9 236C432.9 235.4 422.4 235 409.3 235C367.3 235 351.1 250.9 351.1 292.2L351.1 320L434.7 320L420.3 398.2L351 398.2L351 574.1C477.8 558.8 576 450.9 576 320z"></path>
  </symbol>
</svg>